<svg width="99" height="75" viewBox="0 0 99 75" fill="none" xmlns="http://www.w3.org/2000/svg">
<path d="M90.75 0H8.25C3.75375 0.165 0.165 3.75375 0 8.25V66C0.165 70.4963 3.75375 74.085 8.25 74.25H90.75C95.2463 74.085 98.835 70.4963 99 66V8.25C98.9241 6.08613 98.0305 4.03154 96.4995 2.50051C94.9685 0.969488 92.9139 0.0759224 90.75 0ZM90.75 66H8.25V8.25H90.75V66ZM57.75 57.75V52.5938C57.75 45.7463 43.9725 42.2812 37.125 42.2812C30.2775 42.2812 16.5 45.7463 16.5 52.5938V57.75H57.75ZM37.125 16.5C34.39 16.5 31.7669 17.5865 29.833 19.5205C27.899 21.4544 26.8125 24.0775 26.8125 26.8125C26.8125 28.1668 27.0792 29.5078 27.5975 30.7589C28.1157 32.0101 28.8754 33.1469 29.833 34.1045C31.7669 36.0385 34.39 37.125 37.125 37.125C38.4793 37.125 39.8203 36.8583 41.0714 36.34C42.3226 35.8218 43.4594 35.0621 44.417 34.1045C45.3746 33.1469 46.1343 32.0101 46.6525 30.7589C47.1708 29.5078 47.4375 28.1668 47.4375 26.8125C47.4375 25.4582 47.1708 24.1172 46.6525 22.8661C46.1343 21.6149 45.3746 20.4781 44.417 19.5205C43.4594 18.5629 42.3226 17.8032 41.0714 17.285C39.8203 16.7667 38.4793 16.5 37.125 16.5ZM57.75 16.5V20.625H82.5V16.5H57.75ZM57.75 24.75V28.875H82.5V24.75H57.75ZM57.75 33V37.125H74.25V33H57.75Z" fill="#DED27C"/>
</svg>
